<mxfile host="app.diagrams.net" modified="2023-01-12T08:01:13.720Z" agent="5.0 (Windows NT 10.0; Win64; x64) AppleWebKit/537.36 (KHTML, like Gecko) Chrome/108.0.0.0 Safari/537.36 Edg/108.0.1462.76" etag="Avin0j_-zfestAEbii0p" version="20.8.4" type="github">
  <diagram id="Qaewbbj8vGxGTSMMLBKA" name="Page-1">
    <mxGraphModel dx="1548" dy="3404" grid="0" gridSize="10" guides="1" tooltips="1" connect="1" arrows="1" fold="1" page="1" pageScale="1" pageWidth="1654" pageHeight="2336" math="0" shadow="0">
      <root>
        <mxCell id="0" />
        <mxCell id="1" parent="0" />
        <mxCell id="cP6w5QsXIV8wfdoeaYOx-15" value="" style="rounded=0;whiteSpace=wrap;html=1;dashed=1;dashPattern=12 12;fontSize=12;" vertex="1" parent="1">
          <mxGeometry x="42" y="133" width="990" height="1040" as="geometry" />
        </mxCell>
        <mxCell id="cP6w5QsXIV8wfdoeaYOx-10" value="" style="rounded=0;whiteSpace=wrap;html=1;fontSize=12;dashed=1;dashPattern=12 12;" vertex="1" parent="1">
          <mxGeometry x="180" y="580" width="530" height="180" as="geometry" />
        </mxCell>
        <mxCell id="cP6w5QsXIV8wfdoeaYOx-7" value="" style="rounded=0;whiteSpace=wrap;html=1;fontSize=12;" vertex="1" parent="1">
          <mxGeometry x="170" y="580" width="530" height="170" as="geometry" />
        </mxCell>
        <mxCell id="cP6w5QsXIV8wfdoeaYOx-1" value="" style="rounded=0;whiteSpace=wrap;html=1;fontSize=12;dashed=1;" vertex="1" parent="1">
          <mxGeometry x="130" y="490" width="630" height="300" as="geometry" />
        </mxCell>
        <mxCell id="cP6w5QsXIV8wfdoeaYOx-2" value="" style="rounded=0;whiteSpace=wrap;html=1;fontSize=12;dashed=1;" vertex="1" parent="1">
          <mxGeometry x="130" y="180" width="630" height="300" as="geometry" />
        </mxCell>
        <mxCell id="rh5Ilg9LhCGlqB3S2UzY-54" value="" style="rounded=0;whiteSpace=wrap;html=1;fontSize=17;dashed=1;dashPattern=12 12;" parent="1" vertex="1">
          <mxGeometry x="170" y="625" width="540" height="140" as="geometry" />
        </mxCell>
        <mxCell id="rh5Ilg9LhCGlqB3S2UzY-5" style="edgeStyle=orthogonalEdgeStyle;rounded=0;orthogonalLoop=1;jettySize=auto;html=1;exitX=0;exitY=0.75;exitDx=0;exitDy=0;startArrow=none;" parent="1" source="cP6w5QsXIV8wfdoeaYOx-15" edge="1">
          <mxGeometry relative="1" as="geometry">
            <mxPoint x="130" y="1080" as="targetPoint" />
            <Array as="points">
              <mxPoint x="40" y="135" />
              <mxPoint x="40" y="1080" />
              <mxPoint x="70" y="1080" />
            </Array>
          </mxGeometry>
        </mxCell>
        <object label="" VPC="" id="rh5Ilg9LhCGlqB3S2UzY-1">
          <mxCell style="ellipse;shape=cloud;whiteSpace=wrap;html=1;" parent="1" vertex="1">
            <mxGeometry x="20" y="80" width="120" height="90" as="geometry" />
          </mxCell>
        </object>
        <mxCell id="rh5Ilg9LhCGlqB3S2UzY-6" value="" style="edgeStyle=none;orthogonalLoop=1;jettySize=auto;html=1;rounded=0;" parent="1" edge="1">
          <mxGeometry width="100" relative="1" as="geometry">
            <mxPoint x="70" y="1080" as="sourcePoint" />
            <mxPoint x="800" y="1080" as="targetPoint" />
            <Array as="points" />
          </mxGeometry>
        </mxCell>
        <mxCell id="rh5Ilg9LhCGlqB3S2UzY-7" value="" style="endArrow=none;html=1;rounded=0;" parent="1" edge="1">
          <mxGeometry width="50" height="50" relative="1" as="geometry">
            <mxPoint x="800" y="1080" as="sourcePoint" />
            <mxPoint x="800" y="160" as="targetPoint" />
            <Array as="points">
              <mxPoint x="800" y="860" />
              <mxPoint x="800" y="620" />
              <mxPoint x="800" y="390" />
            </Array>
          </mxGeometry>
        </mxCell>
        <mxCell id="rh5Ilg9LhCGlqB3S2UzY-8" value="" style="endArrow=none;html=1;rounded=0;" parent="1" edge="1">
          <mxGeometry width="50" height="50" relative="1" as="geometry">
            <mxPoint x="110" y="160" as="sourcePoint" />
            <mxPoint x="800" y="160" as="targetPoint" />
            <Array as="points" />
          </mxGeometry>
        </mxCell>
        <mxCell id="rh5Ilg9LhCGlqB3S2UzY-12" value="&lt;font style=&quot;font-size: 18px;&quot;&gt;&lt;br&gt;VPC&lt;/font&gt;" style="text;html=1;strokeColor=none;fillColor=none;align=center;verticalAlign=middle;whiteSpace=wrap;rounded=0;" parent="1" vertex="1">
          <mxGeometry x="45" y="75" width="70" height="80" as="geometry" />
        </mxCell>
        <mxCell id="rh5Ilg9LhCGlqB3S2UzY-64" style="edgeStyle=orthogonalEdgeStyle;rounded=0;orthogonalLoop=1;jettySize=auto;html=1;fontSize=12;" parent="1" source="rh5Ilg9LhCGlqB3S2UzY-13" edge="1">
          <mxGeometry relative="1" as="geometry">
            <mxPoint x="460" y="160" as="targetPoint" />
          </mxGeometry>
        </mxCell>
        <mxCell id="rh5Ilg9LhCGlqB3S2UzY-13" value="&lt;span style=&quot;font-size: 17px;&quot;&gt;AWS&lt;/span&gt;" style="ellipse;whiteSpace=wrap;html=1;fontSize=18;" parent="1" vertex="1">
          <mxGeometry x="344" y="-54" width="231" height="161" as="geometry" />
        </mxCell>
        <mxCell id="rh5Ilg9LhCGlqB3S2UzY-22" value="" style="endArrow=none;html=1;rounded=0;fontSize=18;startArrow=none;" parent="1" edge="1">
          <mxGeometry width="50" height="50" relative="1" as="geometry">
            <mxPoint x="473" y="220" as="sourcePoint" />
            <mxPoint x="680" y="320" as="targetPoint" />
            <Array as="points">
              <mxPoint x="460" y="210" />
              <mxPoint x="490" y="220" />
              <mxPoint x="520" y="220" />
              <mxPoint x="570" y="220" />
              <mxPoint x="620" y="220" />
              <mxPoint x="680" y="220" />
            </Array>
          </mxGeometry>
        </mxCell>
        <mxCell id="rh5Ilg9LhCGlqB3S2UzY-25" value="" style="endArrow=none;html=1;rounded=0;fontSize=18;" parent="1" target="rh5Ilg9LhCGlqB3S2UzY-24" edge="1">
          <mxGeometry width="50" height="50" relative="1" as="geometry">
            <mxPoint x="200" y="320.0000000000001" as="sourcePoint" />
            <mxPoint x="680" y="320.0000000000001" as="targetPoint" />
            <Array as="points">
              <mxPoint x="200" y="220" />
            </Array>
          </mxGeometry>
        </mxCell>
        <mxCell id="rh5Ilg9LhCGlqB3S2UzY-24" value="&lt;span style=&quot;font-size: 14px;&quot;&gt;App&lt;br&gt;Load&amp;nbsp;&lt;br&gt;Balamcer&lt;br&gt;&lt;/span&gt;" style="shape=ext;double=1;rounded=1;whiteSpace=wrap;html=1;fontSize=18;" parent="1" vertex="1">
          <mxGeometry x="410" y="184" width="80" height="66" as="geometry" />
        </mxCell>
        <mxCell id="rh5Ilg9LhCGlqB3S2UzY-26" value="VM1" style="shape=ext;double=1;rounded=0;whiteSpace=wrap;html=1;fontSize=14;" parent="1" vertex="1">
          <mxGeometry x="160" y="310" width="80" height="50" as="geometry" />
        </mxCell>
        <mxCell id="rh5Ilg9LhCGlqB3S2UzY-27" value="VM2" style="shape=ext;double=1;rounded=0;whiteSpace=wrap;html=1;fontSize=14;" parent="1" vertex="1">
          <mxGeometry x="630" y="310" width="90" height="50" as="geometry" />
        </mxCell>
        <mxCell id="rh5Ilg9LhCGlqB3S2UzY-28" value="App&lt;br&gt;Load&amp;nbsp;&lt;br&gt;Balancer" style="shape=ext;double=1;rounded=1;whiteSpace=wrap;html=1;fontSize=14;" parent="1" vertex="1">
          <mxGeometry x="410" y="490" width="80" height="60" as="geometry" />
        </mxCell>
        <mxCell id="rh5Ilg9LhCGlqB3S2UzY-32" value="" style="endArrow=none;html=1;rounded=0;fontSize=14;exitX=0.25;exitY=1;exitDx=0;exitDy=0;entryX=1;entryY=0.25;entryDx=0;entryDy=0;" parent="1" source="rh5Ilg9LhCGlqB3S2UzY-27" target="rh5Ilg9LhCGlqB3S2UzY-28" edge="1">
          <mxGeometry width="50" height="50" relative="1" as="geometry">
            <mxPoint x="710" y="460" as="sourcePoint" />
            <mxPoint x="570" y="530" as="targetPoint" />
            <Array as="points" />
          </mxGeometry>
        </mxCell>
        <mxCell id="rh5Ilg9LhCGlqB3S2UzY-35" value="Vm1" style="shape=ext;double=1;rounded=0;whiteSpace=wrap;html=1;fontSize=14;" parent="1" vertex="1">
          <mxGeometry x="160" y="670" width="80" height="50" as="geometry" />
        </mxCell>
        <mxCell id="rh5Ilg9LhCGlqB3S2UzY-36" value="Vm2" style="shape=ext;double=1;rounded=0;whiteSpace=wrap;html=1;fontSize=14;" parent="1" vertex="1">
          <mxGeometry x="640" y="670" width="80" height="50" as="geometry" />
        </mxCell>
        <mxCell id="rh5Ilg9LhCGlqB3S2UzY-38" value="&lt;br&gt;Data&amp;nbsp; Base" style="html=1;whiteSpace=wrap;shape=isoCube2;backgroundOutline=1;isoAngle=15;fontSize=14;" parent="1" vertex="1">
          <mxGeometry x="160" y="880" width="80" height="80" as="geometry" />
        </mxCell>
        <mxCell id="rh5Ilg9LhCGlqB3S2UzY-46" value="" style="endArrow=none;html=1;rounded=0;fontSize=17;exitX=0.681;exitY=1.007;exitDx=0;exitDy=0;entryX=0;entryY=0.25;entryDx=0;entryDy=0;exitPerimeter=0;" parent="1" source="rh5Ilg9LhCGlqB3S2UzY-26" target="rh5Ilg9LhCGlqB3S2UzY-28" edge="1">
          <mxGeometry width="50" height="50" relative="1" as="geometry">
            <mxPoint x="380" y="550" as="sourcePoint" />
            <mxPoint x="400" y="500" as="targetPoint" />
          </mxGeometry>
        </mxCell>
        <mxCell id="rh5Ilg9LhCGlqB3S2UzY-49" value="" style="endArrow=none;html=1;rounded=0;fontSize=17;exitX=0.5;exitY=0;exitDx=0;exitDy=0;" parent="1" source="rh5Ilg9LhCGlqB3S2UzY-35" edge="1">
          <mxGeometry width="50" height="50" relative="1" as="geometry">
            <mxPoint x="200" y="630" as="sourcePoint" />
            <mxPoint x="200" y="520" as="targetPoint" />
            <Array as="points">
              <mxPoint x="200" y="600" />
            </Array>
          </mxGeometry>
        </mxCell>
        <mxCell id="rh5Ilg9LhCGlqB3S2UzY-50" value="" style="endArrow=none;html=1;rounded=0;fontSize=17;entryX=0;entryY=0.5;entryDx=0;entryDy=0;" parent="1" target="rh5Ilg9LhCGlqB3S2UzY-28" edge="1">
          <mxGeometry width="50" height="50" relative="1" as="geometry">
            <mxPoint x="200" y="520" as="sourcePoint" />
            <mxPoint x="700" y="530" as="targetPoint" />
          </mxGeometry>
        </mxCell>
        <mxCell id="rh5Ilg9LhCGlqB3S2UzY-52" value="" style="endArrow=none;html=1;rounded=0;fontSize=17;exitX=1;exitY=0.5;exitDx=0;exitDy=0;" parent="1" source="rh5Ilg9LhCGlqB3S2UzY-28" edge="1">
          <mxGeometry width="50" height="50" relative="1" as="geometry">
            <mxPoint x="600" y="680" as="sourcePoint" />
            <mxPoint x="680" y="520" as="targetPoint" />
            <Array as="points">
              <mxPoint x="580" y="520" />
            </Array>
          </mxGeometry>
        </mxCell>
        <mxCell id="rh5Ilg9LhCGlqB3S2UzY-53" value="" style="endArrow=none;html=1;rounded=0;fontSize=17;" parent="1" edge="1">
          <mxGeometry width="50" height="50" relative="1" as="geometry">
            <mxPoint x="679.6" y="670" as="sourcePoint" />
            <mxPoint x="679.6" y="520" as="targetPoint" />
            <Array as="points">
              <mxPoint x="679.6" y="550" />
            </Array>
          </mxGeometry>
        </mxCell>
        <mxCell id="rh5Ilg9LhCGlqB3S2UzY-56" value="vpn" style="triangle;whiteSpace=wrap;html=1;fontSize=17;" parent="1" vertex="1">
          <mxGeometry x="250" y="580" width="60" height="80" as="geometry" />
        </mxCell>
        <mxCell id="rh5Ilg9LhCGlqB3S2UzY-65" value="" style="endArrow=none;html=1;rounded=0;fontSize=12;exitX=0;exitY=0;exitDx=80;exitDy=19.20630072640928;exitPerimeter=0;entryX=0.25;entryY=1;entryDx=0;entryDy=0;" parent="1" source="rh5Ilg9LhCGlqB3S2UzY-38" target="rh5Ilg9LhCGlqB3S2UzY-36" edge="1">
          <mxGeometry width="50" height="50" relative="1" as="geometry">
            <mxPoint x="490" y="850" as="sourcePoint" />
            <mxPoint x="540" y="800" as="targetPoint" />
          </mxGeometry>
        </mxCell>
        <mxCell id="rh5Ilg9LhCGlqB3S2UzY-66" value="" style="endArrow=none;html=1;rounded=0;fontSize=12;exitX=0.75;exitY=0;exitDx=0;exitDy=0;" parent="1" source="rh5Ilg9LhCGlqB3S2UzY-69" edge="1">
          <mxGeometry width="50" height="50" relative="1" as="geometry">
            <mxPoint x="220" y="900" as="sourcePoint" />
            <mxPoint x="215" y="720" as="targetPoint" />
          </mxGeometry>
        </mxCell>
        <mxCell id="rh5Ilg9LhCGlqB3S2UzY-69" value="Public" style="text;html=1;strokeColor=none;fillColor=none;align=center;verticalAlign=middle;whiteSpace=wrap;rounded=0;fontSize=12;" parent="1" vertex="1">
          <mxGeometry x="170" y="885" width="60" height="30" as="geometry" />
        </mxCell>
        <mxCell id="rh5Ilg9LhCGlqB3S2UzY-71" value="&lt;font style=&quot;font-size: 14px;&quot;&gt;&lt;br&gt;Data&amp;nbsp; &amp;nbsp;Base&lt;/font&gt;" style="html=1;whiteSpace=wrap;shape=isoCube2;backgroundOutline=1;isoAngle=15;fontSize=12;" parent="1" vertex="1">
          <mxGeometry x="640" y="880" width="80" height="80" as="geometry" />
        </mxCell>
        <mxCell id="rh5Ilg9LhCGlqB3S2UzY-72" value="" style="endArrow=none;html=1;rounded=0;fontSize=12;exitX=1;exitY=0.5;exitDx=0;exitDy=0;exitPerimeter=0;entryX=0;entryY=0.5;entryDx=0;entryDy=0;entryPerimeter=0;" parent="1" source="rh5Ilg9LhCGlqB3S2UzY-38" target="rh5Ilg9LhCGlqB3S2UzY-71" edge="1">
          <mxGeometry width="50" height="50" relative="1" as="geometry">
            <mxPoint x="270" y="930" as="sourcePoint" />
            <mxPoint x="620" y="930" as="targetPoint" />
            <Array as="points" />
          </mxGeometry>
        </mxCell>
        <mxCell id="rh5Ilg9LhCGlqB3S2UzY-74" value="&lt;font style=&quot;font-size: 12px;&quot;&gt;Private&lt;/font&gt;" style="text;html=1;strokeColor=none;fillColor=none;align=center;verticalAlign=middle;whiteSpace=wrap;rounded=0;fontSize=14;" parent="1" vertex="1">
          <mxGeometry x="650" y="890" width="60" height="20" as="geometry" />
        </mxCell>
        <mxCell id="cP6w5QsXIV8wfdoeaYOx-3" value="&lt;font style=&quot;font-size: 16px;&quot;&gt;Public Subnet&lt;/font&gt;" style="text;html=1;strokeColor=none;fillColor=none;align=center;verticalAlign=middle;whiteSpace=wrap;rounded=0;dashed=1;fontSize=12;" vertex="1" parent="1">
          <mxGeometry x="130" y="200" width="60" height="75" as="geometry" />
        </mxCell>
        <mxCell id="cP6w5QsXIV8wfdoeaYOx-4" value="&lt;font style=&quot;font-size: 16px;&quot;&gt;Private&amp;nbsp;&lt;br&gt;Subnet&lt;/font&gt;" style="text;html=1;strokeColor=none;fillColor=none;align=center;verticalAlign=middle;whiteSpace=wrap;rounded=0;dashed=1;fontSize=12;" vertex="1" parent="1">
          <mxGeometry x="130" y="505" width="60" height="75" as="geometry" />
        </mxCell>
        <mxCell id="cP6w5QsXIV8wfdoeaYOx-17" value="&lt;font style=&quot;font-size: 24px;&quot;&gt;Firewall&lt;/font&gt;" style="text;html=1;strokeColor=none;fillColor=none;align=center;verticalAlign=middle;whiteSpace=wrap;rounded=0;dashed=1;dashPattern=12 12;fontSize=12;" vertex="1" parent="1">
          <mxGeometry x="840" y="110" width="100" height="110" as="geometry" />
        </mxCell>
        <mxCell id="cP6w5QsXIV8wfdoeaYOx-22" value="Aquila MERN application" style="text;html=1;strokeColor=none;fillColor=none;align=center;verticalAlign=middle;whiteSpace=wrap;rounded=0;dashed=1;dashPattern=12 12;fontSize=16;" vertex="1" parent="1">
          <mxGeometry x="205" y="192" width="195" height="30" as="geometry" />
        </mxCell>
        <mxCell id="cP6w5QsXIV8wfdoeaYOx-24" value="Aquila MERN Application" style="text;html=1;strokeColor=none;fillColor=none;align=center;verticalAlign=middle;whiteSpace=wrap;rounded=0;dashed=1;dashPattern=12 12;fontSize=16;" vertex="1" parent="1">
          <mxGeometry x="208" y="496" width="199" height="30" as="geometry" />
        </mxCell>
      </root>
    </mxGraphModel>
  </diagram>
</mxfile>
